<svg xmlns="http://www.w3.org/2000/svg" viewBox="0 0 44.9 27.89"><defs><style>.cls-1{fill:#fff;}</style></defs><g id="Capa_1" data-name="Capa 1"><path class="cls-1" d="M16.51,27.51a7.64,7.64,0,0,0,5.12-3.6,8.12,8.12,0,0,0,1.24-4.44,7.42,7.42,0,0,0-1.08-4.09,6.27,6.27,0,0,0-3.22-2.46,6.71,6.71,0,0,0,2.12-1.59A6.2,6.2,0,0,0,22,7.23,7,7,0,0,0,20.7,3Q18.59.07,13.48,0H0V27.89H12.57A19.51,19.51,0,0,0,16.51,27.51ZM5.56,4.84h6.07a10.47,10.47,0,0,1,3.29.44,2.49,2.49,0,0,1,1.5,2.57,2.65,2.65,0,0,1-1.13,2.45,5.6,5.6,0,0,1-2.95.69H5.56Zm0,18.2V15.61h6.87a7,7,0,0,1,2.78.47,3,3,0,0,1,1.78,3,3.52,3.52,0,0,1-1.83,3.48,6.6,6.6,0,0,1-2.83.49Z"/><path class="cls-1" d="M27.6,25.35a11.23,11.23,0,0,0,7.26,2.54,10.06,10.06,0,0,0,7.76-3,6.8,6.8,0,0,0,2-3.73H39.11A4.45,4.45,0,0,1,38,22.57a4.56,4.56,0,0,1-3,.95,5.43,5.43,0,0,1-3-.78,4.92,4.92,0,0,1-2.16-4.35h15a27.77,27.77,0,0,0-.18-4.09A10.22,10.22,0,0,0,43.08,10a8.45,8.45,0,0,0-3.57-3,11.76,11.76,0,0,0-4.85-1,9.92,9.92,0,0,0-7.37,2.86q-2.84,2.85-2.84,8.21C24.45,20.9,25.5,23.66,27.6,25.35Zm3.85-13.71a4.29,4.29,0,0,1,3.22-1.18,4.7,4.7,0,0,1,3.19,1.11,4.51,4.51,0,0,1,1.44,3.26H30A5.66,5.66,0,0,1,31.45,11.64Z"/><rect class="cls-1" x="28.25" y="0.9" width="12.12" height="2.81"/></g></svg>