<svg id="Capa_2" data-name="Capa 2" xmlns="http://www.w3.org/2000/svg" viewBox="0 0 84.99 84.99"><defs><style>.cls-1{fill:#f0f;}</style></defs><path class="cls-1" d="M17.21,43.36c.06-.08.14-.16.19-.24l16-27.25,9-15.24L42.52.4l25.25,43L42.52,59.15,42.26,59,17.6,43.61c-.12-.08-.26-.13-.39-.2Z"/><path class="cls-1" d="M42.47,84.65a1.67,1.67,0,0,0-.12-.23L19,51,17.47,48.8a.65.65,0,0,1-.12-.25,1.71,1.71,0,0,1,.23.13l13.55,8.46,11.13,7a.39.39,0,0,0,.51,0L67.43,48.69a.77.77,0,0,1,.26-.12,1.48,1.48,0,0,1-.13.21L52.66,70.12,42.58,84.56l-.06.09Z"/></svg>