<svg xmlns="http://www.w3.org/2000/svg" viewBox="0 0 27.89 27.89"><defs><style>.cls-1{fill:#fff;}</style></defs><g id="Capa_1" data-name="Capa 1"><path class="cls-1" d="M19.51,0H8.38A8.39,8.39,0,0,0,0,8.38V19.51a8.39,8.39,0,0,0,8.38,8.38H19.51a8.39,8.39,0,0,0,8.38-8.38V8.38A8.39,8.39,0,0,0,19.51,0Zm.18,6.61a1.64,1.64,0,1,1,1.64,1.64A1.63,1.63,0,0,1,19.69,6.61Zm1.23,7.33a6.87,6.87,0,1,1-6.86-6.86A6.87,6.87,0,0,1,20.92,13.94Z"/><path class="cls-1" d="M14.06,9.54a4.4,4.4,0,1,0,4.4,4.4A4.41,4.41,0,0,0,14.06,9.54Z"/></g></svg>