<svg xmlns="http://www.w3.org/2000/svg" xmlns:xlink="http://www.w3.org/1999/xlink" viewBox="0 0 355.6 202.59"><defs><style>.cls-1{fill:#e7ff00;}.cls-2{fill:url(#Degradado_sin_nombre_646);}.cls-3{fill:url(#Degradado_sin_nombre_646-2);}</style><linearGradient id="Degradado_sin_nombre_646" x1="46.61" y1="106.3" x2="344.77" y2="106.3" gradientUnits="userSpaceOnUse"><stop offset="0" stop-color="#ff009e"/><stop offset="0.5" stop-color="#ff9500"/><stop offset="1" stop-color="#dbff00"/></linearGradient><linearGradient id="Degradado_sin_nombre_646-2" x1="46.61" y1="106.45" x2="344.77" y2="106.45" xlink:href="#Degradado_sin_nombre_646"/></defs><g id="Capa_1" data-name="Capa 1"><path class="cls-1" d="M86.56,47.44C75.3,36.33,56,46,45.46,54c-16,12.45-31.15,33.3-35.73,50a24.91,24.91,0,0,0-1,9.89c1.35,9.56,11,10.22,17.62,5,8.29-6.19,14.82-17.06,20.43-26.5l-5.44-.65-.07.1c-4.1,7.4-10.89,17.81-17.9,23.1-3.52,2.56-8.65,4.15-9.69-1.76-.35-2,0-4.55.82-7.83C18.8,89.73,33.9,69.49,49,57.78,56.5,51.9,74.22,42.18,83.13,51c3.16,3.08,4.28,8,3.39,12.51-4,20.64-26.28,25.42-45.84,21.86a2.44,2.44,0,0,0-3,1.95,2.52,2.52,0,0,0,2,3c5.54.71,8.74,1.16,12.07,1.33,23,.43,36.64-11.28,39.68-27.11C92.51,58.65,91.34,52,86.56,47.44Z"/><path class="cls-1" d="M63.65,58.41a2.37,2.37,0,0,0-1.33-3.23,2.24,2.24,0,0,0-3.25,1.25c-4.27,9.8-8.25,17.94-13,26.89l-.9,1.59c1.29.11,2.43.34,5.42.57V85.4L52,82.6C56.24,74.42,59.85,67.11,63.65,58.41Z"/><path class="cls-1" d="M97.32,87.89l4.45-6.37.07-.09,8.91-13.24c-.92-1.86-1.51-3.79-2.27-5.68-3.77,5.48-7.26,11.08-11.57,17.33a26,26,0,0,0-.89,9.8Z"/><path class="cls-1" d="M117.1,100.37a13.86,13.86,0,0,1-7.69-.5c-4.45,2.14-9.64,0-12.56-4.55-2.76-4.66-2.5-10.37-1.09-15.78a2.71,2.71,0,0,0-4.92.36c-1.19,2.83-.73,9.77-.73,9.77a18,18,0,0,0,2.19,7.64c2.32,4.49,7.4,8.41,13,8.26A15.54,15.54,0,0,0,117.1,100.37Z"/><path class="cls-1" d="M112.81,70.28a52.77,52.77,0,0,1,3.59,15.09,19,19,0,0,1-.8,7.92,11.76,11.76,0,0,0,5.64-3.45A22.44,22.44,0,0,0,121.4,85c-.5-8.11-3.79-16.74-6.28-21.71a21.46,21.46,0,0,1-1.12-3,6.44,6.44,0,0,1,1-4.75c.21-.29.57-.6,1-.33s.22.8,0,1.09a5.09,5.09,0,0,0-.82,3.95,3.55,3.55,0,0,0,.25,1l.33-.57c1.28-1.83,2.64-3.68,3-5,1-4.48-4-4.79-6.57-3.23-3.06,1.81-4,6.45-2.21,11C111,65.54,112,67.81,112.81,70.28Z"/><path class="cls-1" d="M111.54,94.25c-3.53-1.32-6.31-4.12-10.49-9.64l-3,4.24a40.28,40.28,0,0,0,4.26,5c4,3.94,8.29,5.8,12.64,5.55a18.12,18.12,0,0,0,13.22-8s0,0,0,0l.66-.84a30.15,30.15,0,0,1,2.66-11.79c-2.25,3.2-5.29,7.18-7.87,10.28C120.62,92.4,116.67,95.67,111.54,94.25Z"/><path class="cls-1" d="M83.56,97.58a2.42,2.42,0,0,0,.28,3.5,2.49,2.49,0,0,0,3.5-.28c1.12-1.29,2.25-2.59,3.34-4a21.25,21.25,0,0,1-1.66-6C87.17,93.14,85.47,95.47,83.56,97.58Z"/><path class="cls-1" d="M169.78,67.93v0l-.08.13Z"/><path class="cls-1" d="M134.75,98.87c4.61,1.72,10-1.42,17.84-8.56L159,75A101.41,101.41,0,0,1,146,89.7c-3.28,3-10.65,8.64-10.83.39a36.5,36.5,0,0,1,2.24-9.78c3-8.73,7.11-16.72,15-29.26.28-.3.53-.34.82-.14a.55.55,0,0,1,.14.82c-5.86,9.4-9.66,16.15-12.35,22.46,5.56-8.75,11.17-17.69,14.06-24.28.92-2.45-2.65-4.95-4.51-2.59a110.46,110.46,0,0,0-16.46,27.92C131.72,80.72,126.21,95.47,134.75,98.87Z"/><path class="cls-1" d="M176.35,49.1c.31-.64,1.47-.26,1.1.49l-7.66,18.3c2.09-3.29,3.93-6.53,5.41-9.46s2.51-5.43,3.39-7.61c.71-2.24,1.55-4.67.62-7a2.53,2.53,0,0,0-4.3-.42,79.25,79.25,0,0,0-8.58,17c-18.8,45.32-9.85,24.22-20.74,47.77C141.25,116.57,132,134,120.92,136c-2.62.46-4.48-.48-4.76-2.54-.39-2.22,1.13-6.54,7.38-11.87,5.22-4.39,12.06-7.79,20.32-12.71,1.74-3.1,3-5.78,4.45-8.81-11.33,7.66-20.84,11.7-28.07,17.71-6.74,5.84-9.62,11.58-9,16.3.64,5,5.33,7.68,10.59,6.84,12.38-2.19,22.66-18.62,31-36C160.41,87.67,167.47,70.19,176.35,49.1Z"/><path class="cls-1" d="M182.29,85.24c3.36,5.16,9.68,6,15.21,4.76a30.54,30.54,0,0,0,15.4-9.48,53.07,53.07,0,0,0,4.21-4.88,3,3,0,0,0,.32-.5c.75-.93,1.5-1.89,2.29-2.92,2.9-7,6.26-14.79,9.73-22.42C223.51,58.28,218.28,67,211,75.11a2.14,2.14,0,0,0-.2.32c-.51.59-1,1.18-1.54,1.76a26.41,26.41,0,0,1-12.88,7.94c-9.48,2.34-13.18-5.71-12-14.12s8.85-20.75,15.74-25.77c4.15-2.84,7.11-3.28,8.73-1.79,2.53,2.34,1.38,6.86-.26,10.53a12.48,12.48,0,0,1-2,3c-2.5,3.06,2,8.18,6.12.19a18.79,18.79,0,0,0,2.49-8.39c.51-10.06-7.93-13.81-16.28-8.45C185.73,48.63,173.56,72.16,182.29,85.24Z"/><path class="cls-1" d="M170.28,82.29a2.49,2.49,0,0,0-.19.3c-.4.48-.79.94-1.2,1.38-1.56,1.71-7.73,7.45-9.83,9.43l-4.18,9.86,3.58-3.16A187.52,187.52,0,0,0,172.6,87.29q1.91-2.12,3.78-4.47a3.39,3.39,0,0,0,.23-.34c.61-.78,1.23-1.58,1.9-2.4a26.67,26.67,0,0,1-.16-8.09A126.56,126.56,0,0,1,170.28,82.29Z"/><path class="cls-1" d="M217.47,82a2.5,2.5,0,0,0,4.75,1.53c5.8-16,23-40.23,38.66-49.16,6.21-2.62,5.25,1,2.13,6.81-1.95,3.81-4.73,8.18-7.39,12.71S250.54,63,249.47,67c-2.29,8.6,4.11,14.65,12.47,10.31a32.09,32.09,0,0,0,7.74-6.44c.71-.77,1.43-1.58,2.17-2.42l.08-.09.24-.28,2.15-2.51a2.06,2.06,0,0,0,.25-.4l.64-.77a22.63,22.63,0,0,1,.73-9.26c-2.66,3.6-5.28,6.94-7.78,10a1.79,1.79,0,0,0-.2.28c-.65.74-1.29,1.45-1.91,2.12-4.84,5.16-8.72,7.11-10.69,6s-1.62-3.43-1-5.31c.86-3.28,3-7.38,5.61-11.81s5.44-8.9,7.53-12.9c1.66-3.51,3.85-7.87,2.59-11.2-1.83-5.08-7.29-4.46-11.41-2.38C245.59,37.32,235.25,50.55,227,63.67c-.19.37-.44.41-.73.21a.51.51,0,0,1-.22-.8,151.32,151.32,0,0,1,10.82-15.35l.06-.1c0-.08.07-.09.06-.17,5.47-11.62,8.94-16.88,16.74-30.17.12-.28.35-.4.72-.21s.43.51.23.8c-6.19,10.47-10,16.8-14.69,26,4.49-5.18,15.54-22.6,16.92-28.17.9-2.61-2.54-4.37-4.41-2.52-8.64,9-20.2,32.64-29,53.47C221.33,71.77,218.88,76.6,217.47,82Z"/><path class="cls-1" d="M283.91,74.43c8.75,1.67,18.22-9.3,24-19.54l.25-.47a27.76,27.76,0,0,1-6.08.49,58,58,0,0,1-8.46,10.53c-3.73,3.28-6.73,4.48-8.83,4.09-3-.48-6.83-6.65-.43-18.77,1.06-2.13,2-3.74,2.89-5.16A2.51,2.51,0,1,0,283,43.07c-.85,1.42-1.73,3.18-2.95,5.34C272.13,63.23,277.26,73.15,283.91,74.43Z"/><path class="cls-1" d="M324.47,31.69a2.45,2.45,0,0,0-3.08,1.73c-1.62,6.12-4.89,10.16-8.76,12.61l-.23.13.06-.1a12.67,12.67,0,0,1-6.9,2.57l-.08,0c-4.39.52-8.3-.57-10.63-2.78s-3.4-5.4-1.87-10.15c2-5.34,5.53-7.9,8.84-8.82s6.07-.06,6.82.82c0,.08.1.07.11.15,1.35,1.45,1.81,4.5.89,9.39a52.76,52.76,0,0,1-3.46,10.08,12.11,12.11,0,0,0,6.58-2.94c2.68-7.31,3.63-14.92.15-19.29l-.43-.52v-.08l0-.08h-.08L312,24c-2.74-2.57-7.42-3.26-11.67-1.92-4.81,1.44-9.5,5.06-12.09,11.94-2.16,6.46-.78,11.88,3.16,15.5a16.82,16.82,0,0,0,10.29,4.18A20.56,20.56,0,0,0,309,53l.24,0c7.41-2.07,14.16-7.91,17.06-18.31A2.43,2.43,0,0,0,324.47,31.69Z"/><path class="cls-1" d="M219.54,115.45C208.28,104.34,189,114,178.43,122c-16,12.45-31.14,33.3-35.72,50a24.73,24.73,0,0,0-1,9.89c1.35,9.56,11,10.23,17.62,5,8.28-6.19,14.82-17.06,20.42-26.5l-5.43-.65-.07.1c-4.11,7.4-10.89,17.81-17.9,23.1-3.52,2.56-8.65,4.15-9.69-1.76-.35-2,0-4.55.81-7.83,4.26-15.63,19.37-35.87,34.46-47.58,7.5-5.88,25.23-15.6,34.14-6.78,3.16,3.08,4.27,8,3.38,12.51-4,20.64-26.28,25.42-45.84,21.86a2.44,2.44,0,0,0-3,2,2.52,2.52,0,0,0,2,3c5.53.71,8.74,1.16,12.07,1.33,23,.43,36.63-11.27,39.67-27.11C225.48,126.66,224.31,120,219.54,115.45Z"/><path class="cls-1" d="M196.62,126.42a2.36,2.36,0,0,0-1.33-3.23,2.23,2.23,0,0,0-3.24,1.25c-4.28,9.8-8.25,17.94-13,26.89l-.9,1.6c1.28.11,2.42.33,5.42.56v-.08l1.45-2.79C189.22,142.43,192.83,135.12,196.62,126.42Z"/><path class="cls-1" d="M216.54,165.59a2.5,2.5,0,0,0,.28,3.5,2.44,2.44,0,0,0,3.51-.19,24.23,24.23,0,0,0,3.27-4.47,49.41,49.41,0,0,1,2.24-10.79C223.1,157.25,219.11,162.44,216.54,165.59Z"/><path class="cls-1" d="M239.81,164.79c-2.77,2.51-10.71,8.31-10.05.08a47.46,47.46,0,0,1,2.15-9.85c2.8-8.1,8.32-18.54,13.85-27a.55.55,0,0,1,.82-.14c.37.18.41.43.14.82a151.73,151.73,0,0,0-11,20c5.53-8.41,11.19-17.52,13.84-24.07,1.11-2.82-2.3-4.42-4.52-2.59a119.32,119.32,0,0,0-17.25,29.67,44.28,44.28,0,0,0-3,13c-.13,3.57.8,7.38,4.54,8.92,7.62,3,16.32-7.11,20.87-13a48.48,48.48,0,0,1,1.78-11C247.93,155.75,243.81,161.12,239.81,164.79Z"/><path class="cls-1" d="M320.76,113c-3.86-2.28-8.25-1.26-12.22,1.14a22.73,22.73,0,0,0-2.72,1.83,91,91,0,0,0-19.72,27.65.65.65,0,0,1-.79.31.52.52,0,0,1-.23-.81,93.83,93.83,0,0,1,13.8-21.45.32.32,0,0,1,0-.26c4.59-8.5,10.07-18.17,15.55-26.83a.47.47,0,0,1,.74-.13c.29.2.42.43.21.72-4.54,7.31-9.28,15.42-13.37,22.9l1.8-1.76,1.93-3c6-9.43,11.69-18.54,13.73-24.73,1-2.62-2.44-4.22-4.24-2.46-6,6.47-14.24,20.85-21.83,35.79l-9.14,19.62a169.93,169.93,0,0,0-7.84,21.16c-.82,3,3.83,4.48,4.81,1.43,1.12-3.24,2.42-6.43,3.88-9.64l0-.17c.08,0,.08,0,.07-.09a89.41,89.41,0,0,1,8.5-16l.06-.09a110.76,110.76,0,0,1,6.69-9.55c8-9.94,14.39-13.27,17.87-11.26,1.15.72,2.08,2.67,1.51,7.08a48.78,48.78,0,0,1-4.71,14.53,56.25,56.25,0,0,1-9.33,13.73c-3.56,3.75-6.77,5.67-9.7,5.85a3.35,3.35,0,0,1-3.07-2.08,10.37,10.37,0,0,1-1-6.83,2.57,2.57,0,0,0-2.09-2.76c-1.06,2.13-2.05,4.17-2.95,6.27a15.26,15.26,0,0,0,1.7,5.78,8.49,8.49,0,0,0,7.66,4.65c9.06-.41,18.1-11.9,23.28-22.36C324.59,131.33,328.1,117.18,320.76,113Z"/><path class="cls-1" d="M278.08,153.73c2.86-7.27,5.83-14.39,9.27-21.75-1.56,2.22-2.81,4.21-4.08,6.13a.17.17,0,0,0-.13.19c-4.32,6.17-8.91,12.73-13.41,17.91a1.7,1.7,0,0,0-.15.22,52.46,52.46,0,0,1-6.39,6.26c-3.05,2.4-6.42,4.35-6.88-1.15-.17-2.85.46-6.51,1.77-11,2.88-9.55,7.55-19,13.52-28.75a.57.57,0,0,1,.81-.23.56.56,0,0,1,.22.81A150.35,150.35,0,0,0,262.09,143a193.28,193.28,0,0,0,11.64-21.66c1.43-3-2.48-4.46-4.63-2.31a87.84,87.84,0,0,0-13,22.42c-2.27,5.3-7.67,18.34-3.37,25.44A6.48,6.48,0,0,0,257,170c6.32,1.34,13.66-6.89,18.88-13.22a2.64,2.64,0,0,0,.38-.64C276.83,155.33,277.44,154.56,278.08,153.73Z"/><path class="cls-2" d="M336.34,101.49l-.06,0-.07-.06-.1,0c-.72,0-1.45,0-2.17,0h-.44c-1.94,0-3.93.1-5.91.26-.14,0-.2.07-.22.12a.46.46,0,0,0,.09.43.73.73,0,0,0,.5.34h0c1.28-.1,2.59-.17,3.88-.22a26,26,0,0,0-2.57,8.36c0,.26.32.61.59.64h.05c.14,0,.23-.09.25-.25a25.43,25.43,0,0,1,2.63-8.34.42.42,0,0,0-.11-.44l.84,0,.77,0c.55,0,1.11,0,1.66,0l.19-.07,0,0,.17-.11h0a1.17,1.17,0,0,0,.06-.2.34.34,0,0,0,0-.1.56.56,0,0,0,0-.12A.41.41,0,0,0,336.34,101.49Z"/><path class="cls-3" d="M346.47,103.69c-.57-.28-1.2.25-1.62.6l-.08.07a14.12,14.12,0,0,0-1.53,1.49,13,13,0,0,0,.65-1.78,4.2,4.2,0,0,0,.24-1.57,1.11,1.11,0,0,0-.76-1,1.19,1.19,0,0,0-1,.36,13.53,13.53,0,0,0-2.38,2.62,11.36,11.36,0,0,0,.43-1.44,2.29,2.29,0,0,0,0-1.27,1,1,0,0,0-.65-.7,1.52,1.52,0,0,0-1.28.2,6.55,6.55,0,0,0-.7.51s0,0,0,0,0,0,0,0h0l0,0,0,.15h0a.22.22,0,0,0,0,.08s0,0,0,.08h0s0,0,0,.06a.41.41,0,0,1,.05.09h0s0,0,.05,0l0,0h0l.15.09h0l.07,0h.17l.09,0,.06,0h0l0,0,.14-.07,0,0a3.25,3.25,0,0,1,.87-.54l.09,0a.62.62,0,0,1,0,.12,3.3,3.3,0,0,1-.13.71,19.82,19.82,0,0,1-.95,2.67,53,53,0,0,1-3,5.64h0c-.12.2.08.51.34.66a.48.48,0,0,0,.26.09.29.29,0,0,0,.25-.14c1.12-1.84,2.21-3.49,3.32-5a30.39,30.39,0,0,1,2.74-3.4l.06-.06a4,4,0,0,1,.68-.61,9.09,9.09,0,0,1-.92,2.84l-.18.4-.37.84c-.22.48-.44,1-.65,1.47l-.06.14a4.09,4.09,0,0,0-.41,1.45.89.89,0,0,0,.59.65.24.24,0,0,0,.29-.16,8.94,8.94,0,0,1,1.39-2.32,20.34,20.34,0,0,1,2-2.27c.25-.23.58-.53.94-.8l.09-.06c-.1.3-.22.59-.35.88-.05.11-.09.23-.14.34l-.12.29a15.12,15.12,0,0,0-.67,1.85,2.29,2.29,0,0,0,0,1.59.73.73,0,0,0,.59.42.25.25,0,0,0,.21-.12.4.4,0,0,0,0-.35c-.18-.37,0-1,.21-1.42l.06-.18c.17-.46.36-.92.54-1.36.09-.24.19-.47.28-.7,0-.06.05-.12.08-.19C346.93,105.15,347.35,104.13,346.47,103.69Z"/></g></svg>