<svg xmlns="http://www.w3.org/2000/svg" viewBox="0 0 33.88 27.89"><defs><style>.cls-1{fill:#e7ff00;}</style></defs><g id="Capa_1" data-name="Capa 1"><path class="cls-1" d="M33.74,3.34a13.91,13.91,0,0,1-3.43,1c.56-.09,1.36-1.09,1.69-1.49A6.6,6.6,0,0,0,33.14.75c0-.06,0-.13,0-.18a.19.19,0,0,0-.18,0,17.44,17.44,0,0,1-4.07,1.55.29.29,0,0,1-.28-.07,2.39,2.39,0,0,0-.35-.36,7.26,7.26,0,0,0-2-1.21,6.91,6.91,0,0,0-3-.49,7.32,7.32,0,0,0-5.17,2.7,7.18,7.18,0,0,0-1.38,2.76,7.37,7.37,0,0,0-.07,2.92c0,.16,0,.18-.14.16-5.58-.83-10.21-2.82-14-7.1-.16-.19-.25-.19-.39,0C.51,3.92,1.31,7.88,3.36,9.83c.27.25.56.51.86.75a7.15,7.15,0,0,1-2.7-.75c-.16-.11-.24-.05-.25.14a3.67,3.67,0,0,0,0,.8,7.14,7.14,0,0,0,4.41,5.7,4.49,4.49,0,0,0,.9.28A8.33,8.33,0,0,1,4,16.83c-.19,0-.26.06-.19.24,1.16,3.17,3.67,4.11,5.55,4.65.25,0,.51,0,.76.1,0,0,0,0-.05.05-.62.95-2.78,1.65-3.79,2a13.55,13.55,0,0,1-5.75.73c-.31,0-.38,0-.46,0s0,.13.09.21c.39.26.79.49,1.2.71a18.79,18.79,0,0,0,3.84,1.54c6.92,1.91,14.71.51,19.9-4.65,4.08-4.05,5.51-9.64,5.51-15.24,0-.22.26-.34.41-.45A13.43,13.43,0,0,0,33.7,3.91a.84.84,0,0,0,.18-.54v0C33.88,3.25,33.88,3.28,33.74,3.34Z"/></g></svg>